<svg xmlns="http://www.w3.org/2000/svg" width="15" height="20" viewBox="0 0 15 20"><g><g><path fill="#fff" d="M15 19.384H.394V3.524h4.108V2.202C4.502.986 5.524 0 6.784 0H8.61c1.26 0 2.282.987 2.282 2.203v1.322H15zM9.98 2.202c0-.73-.614-1.321-1.37-1.321H6.784c-.756 0-1.37.591-1.37 1.321v1.322H9.98zm4.107 2.203h-3.195v1.762h-.913V4.405H5.415v1.762h-.913V4.405H1.307v14.098h12.78z"/><path fill="#505050" d="M15 19.384H.394V3.524h4.108V2.202C4.502.986 5.524 0 6.784 0H8.61c1.26 0 2.282.987 2.282 2.203v1.322H15zM9.98 2.202c0-.73-.614-1.321-1.37-1.321H6.784c-.756 0-1.37.591-1.37 1.321v1.322H9.98zm4.107 2.203h-3.195v1.762h-.913V4.405H5.415v1.762h-.913V4.405H1.307v14.098h12.78z"/></g></g></svg>